<svg width="122" height="48" viewBox="0 0 122 48" fill="none" xmlns="http://www.w3.org/2000/svg">
<path d="M60.6719 15.5205H62.1359V20.3386L66.2803 15.5205H68.0049L62.1359 22.1712V24.4906H60.6719V15.5205ZM64.4811 19.1471L68.2286 24.4906H66.4663L63.5134 20.3514L64.4811 19.1471Z" fill="#16123F"/>
<path d="M72.2862 15.5205H73.788L77.5852 24.4906H76.0217L72.9942 17.0454L69.9787 24.4906H68.4521L72.2862 15.5205ZM70.3628 21.1332H75.5614V22.4146H70.3628V21.1332Z" fill="#16123F"/>
<path d="M87.374 17.5969C87.0594 17.392 86.7491 17.23 86.4431 17.11C86.1371 16.9909 85.8474 16.9052 85.5748 16.8537C85.3022 16.8023 85.0536 16.7766 84.8299 16.7766C84.3996 16.7766 84.0568 16.8623 83.7996 17.0329C83.5433 17.2035 83.4148 17.4512 83.4148 17.776C83.4148 18.0666 83.4996 18.3041 83.6693 18.4875C83.8391 18.6709 84.0619 18.8209 84.3396 18.9358C84.6165 19.0515 84.9225 19.1604 85.2576 19.2624C85.5928 19.3652 85.9254 19.4784 86.2562 19.6018C86.5871 19.7261 86.8931 19.8855 87.1742 20.0827C87.4554 20.2789 87.6791 20.5292 87.8445 20.8327C88.01 21.1361 88.0923 21.5184 88.0923 21.9795C88.0923 22.5093 87.9517 22.9687 87.6705 23.357C87.3894 23.7461 87.0028 24.047 86.5099 24.2604C86.0179 24.4739 85.4531 24.581 84.8162 24.581C84.3611 24.581 83.9188 24.5193 83.4885 24.395C83.0582 24.2716 82.6553 24.1027 82.279 23.8893C81.9027 23.6759 81.5659 23.4281 81.2676 23.1461L81.9002 21.9033C82.1976 22.1853 82.5147 22.4244 82.849 22.6207C83.1842 22.817 83.5228 22.967 83.8665 23.069C84.2093 23.1718 84.5342 23.2224 84.8402 23.2224C85.3528 23.2224 85.7522 23.1196 86.0377 22.9147C86.3231 22.7098 86.4654 22.4235 86.4654 22.0558C86.4654 21.7567 86.3805 21.5158 86.2108 21.3315C86.0411 21.1481 85.8182 20.9964 85.5405 20.8764C85.2636 20.7572 84.9576 20.6501 84.6225 20.5558C84.2873 20.4615 83.9522 20.3527 83.617 20.2292C83.2819 20.1058 82.9759 19.9498 82.699 19.7612C82.4222 19.5735 82.1985 19.3301 82.0287 19.0309C81.859 18.7318 81.7742 18.3521 81.7742 17.89C81.7742 17.386 81.9062 16.948 82.171 16.5769C82.4359 16.2049 82.8053 15.9169 83.2819 15.712C83.7576 15.5072 84.3096 15.4043 84.9379 15.4043C85.5002 15.4043 86.0462 15.49 86.5759 15.6606C87.1057 15.832 87.5728 16.054 87.9783 16.3266L87.3705 17.5952L87.374 17.5969Z" fill="#16123F"/>
<path d="M88.7764 15.5205H95.7373V16.8148H92.9824V24.4906H91.5184V16.8148H88.7764V15.5205Z" fill="#16123F"/>
<path d="M100.353 15.4307C100.998 15.4307 101.6 15.5464 102.158 15.777C102.716 16.0075 103.205 16.3324 103.622 16.7507C104.039 17.169 104.367 17.6541 104.603 18.2053C104.838 18.7564 104.957 19.3522 104.957 19.9933C104.957 20.6345 104.839 21.2345 104.603 21.7933C104.367 22.3531 104.04 22.8425 103.622 23.2608C103.205 23.6791 102.716 24.0065 102.158 24.2414C101.6 24.4762 100.997 24.5937 100.353 24.5937C99.7082 24.5937 99.1057 24.4762 98.5476 24.2414C97.9896 24.0065 97.5011 23.6799 97.0836 23.2608C96.6662 22.8425 96.3387 22.3531 96.103 21.7933C95.8673 21.2336 95.749 20.6336 95.749 19.9933C95.749 19.353 95.8673 18.7547 96.103 18.1993C96.3387 17.6438 96.6653 17.1595 97.0836 16.7447C97.5011 16.3307 97.9896 16.0075 98.5476 15.777C99.1057 15.5464 99.7074 15.4307 100.353 15.4307ZM100.365 16.7121C99.9345 16.7121 99.5317 16.7953 99.1554 16.9624C98.7791 17.1287 98.4456 17.3618 98.1568 17.661C97.8671 17.9601 97.6416 18.3081 97.4805 18.705C97.3193 19.1019 97.2388 19.5313 97.2388 19.9933C97.2388 20.4553 97.3211 20.8865 97.4865 21.2876C97.6519 21.6896 97.8791 22.0419 98.1688 22.3445C98.4585 22.6479 98.7911 22.8854 99.1674 23.0559C99.5437 23.2265 99.9431 23.3122 100.365 23.3122C100.787 23.3122 101.186 23.2265 101.562 23.0559C101.939 22.8854 102.268 22.6479 102.549 22.3445C102.83 22.041 103.051 21.6888 103.212 21.2876C103.373 20.8865 103.454 20.4545 103.454 19.9933C103.454 19.5322 103.373 19.1027 103.212 18.705C103.051 18.3081 102.83 17.9601 102.549 17.661C102.268 17.3618 101.939 17.1295 101.562 16.9624C101.186 16.7961 100.787 16.7121 100.365 16.7121Z" fill="#16123F"/>
<path d="M110.043 15.5214C111.16 15.5214 112.022 15.7888 112.63 16.322C113.238 16.856 113.542 17.606 113.542 18.5711C113.542 19.5363 113.238 20.3634 112.63 20.9223C112.022 21.482 111.16 21.7615 110.043 21.7615H107.984V24.4906H106.52V15.5205H110.043V15.5214ZM110.043 20.468C110.714 20.468 111.232 20.3163 111.601 20.0129C111.968 19.7094 112.153 19.2423 112.153 18.6097C112.153 17.9771 111.968 17.5528 111.601 17.258C111.232 16.9631 110.714 16.8157 110.043 16.8157H107.984V20.468H110.043ZM110.093 21.1726H111.532L113.691 24.4915H112.028L110.093 21.1726Z" fill="#16123F"/>
<path d="M115.49 15.5205H121.694V16.8148H116.954V19.3391H121.198V20.6206H116.954V23.1963H121.843V24.4906H115.489V15.5205H115.49Z" fill="#16123F"/>
<g filter="url(#filter0_d_1216_4185)">
<path d="M34.095 17.0642C31.1721 16.0742 28.2501 15.0799 25.3298 14.0796C24.9209 13.9399 24.524 13.8413 24.1837 14.1945C23.8614 14.5296 23.9729 14.9145 24.104 15.2976C24.6355 16.8499 25.1592 18.4057 25.6889 19.9588C26.1723 21.3766 26.6635 22.7917 27.1444 24.2112C27.2704 24.5832 27.4795 24.8403 27.8969 24.8626C28.3392 24.8858 28.5904 24.6406 28.7378 24.2523C28.8012 24.0852 28.8681 23.9206 28.9341 23.7543C29.2778 22.8843 29.6207 22.0151 30.0055 21.0423C30.555 21.6148 31.0307 22.1231 31.521 22.6177C31.9899 23.0909 32.4073 23.1286 32.7785 22.754C33.1342 22.3957 33.0965 21.9294 32.649 21.4828C32.157 20.9908 31.6479 20.516 31.0873 19.9768C32.1716 19.5448 33.141 19.1377 34.1268 18.7742C34.5725 18.6105 34.9051 18.3945 34.8905 17.8794C34.8768 17.3771 34.5065 17.2039 34.095 17.0642ZM29.6335 18.8068C29.2264 18.95 28.9804 19.1977 28.8338 19.5928C28.587 20.2563 28.3169 20.9111 27.9964 21.7203C27.3269 19.7634 26.7055 17.9462 26.0463 16.0193C27.9844 16.6828 29.8007 17.3051 31.7413 17.9694C30.9596 18.2831 30.3056 18.5702 29.6344 18.806L29.6335 18.8068Z" fill="#16123F"/>
<path d="M27.2025 0.482251L25.5405 5.76748C25.4847 5.94405 25.3065 6.05291 25.1239 6.02033L21.9695 5.46661C21.6738 5.41433 21.5607 5.05004 21.775 4.83918L26.5913 0.107674C26.8656 -0.161473 27.3182 0.115388 27.2025 0.482251Z" fill="#16123F"/>
<path d="M44.9247 6.843C44.9247 6.62785 44.9264 6.4127 44.9067 6.19927C44.869 5.79812 44.6718 5.52983 44.2458 5.47926C43.9792 5.44754 43.7101 5.37812 43.4469 5.39526C41.6443 5.5144 39.828 5.54526 38.0451 5.80669C35.2302 6.21984 32.4805 6.93557 29.8524 8.06873C29.6098 8.1733 29.2567 8.15102 28.9961 8.06445C28.0815 7.76015 27.1987 7.36158 26.2798 7.07271C24.0083 6.3587 21.6889 5.83241 19.3145 5.62069C17.9251 5.4964 16.5279 5.42355 15.1333 5.41926C14.1459 5.41583 13.9521 5.68755 13.9521 6.65957C13.9521 12.8645 13.9521 19.0695 13.9521 25.2744C13.9521 25.4184 14.0284 25.5513 14.1527 25.6241L15.1933 26.2301C15.3493 26.321 15.5456 26.2087 15.5456 26.0279C15.5465 19.9283 15.5499 13.8288 15.5362 7.72929C15.5353 7.22357 15.6476 7.06929 16.1825 7.077C20.5085 7.13786 24.6632 7.99501 28.6404 9.69218C29.1933 9.9279 29.6681 9.92962 30.2244 9.69218C34.2694 7.96673 38.4977 7.10271 42.8966 7.09157C43.0004 7.09157 43.1041 7.10529 43.2446 7.11557V28.7442C41.7849 28.8376 40.3766 28.9173 38.97 29.0211C36.3857 29.2113 33.9128 29.9022 31.4947 30.8168C30.9736 31.0139 30.467 31.2445 29.9527 31.458C29.5696 31.6174 29.2421 31.5822 28.8418 31.4391C27.0281 30.7902 25.2246 30.0805 23.3637 29.6039C22.4037 29.3579 21.4326 29.1693 20.4528 29.039C20.3277 29.0219 20.2694 29.1908 20.3791 29.2542L24.0606 31.3997C25.5238 31.7905 26.9484 32.3254 28.3207 32.9905C29.1076 33.372 29.747 33.3591 30.5296 32.9991C34.6834 31.0919 39.0591 30.2811 43.6235 30.4868C44.6135 30.5314 44.9195 30.2476 44.9204 29.2516C44.923 25.4904 44.9212 21.7284 44.9212 17.9672H44.9238C44.9238 14.2591 44.9238 10.5519 44.9238 6.84386L44.9247 6.843Z" fill="#16123F"/>
<path d="M45.4926 13.2349V18.1062C45.4926 18.215 45.5406 18.3179 45.6238 18.3882L50.2258 22.2762C50.3647 22.3937 50.3973 22.5934 50.3038 22.7494L40.2365 39.4356C40.0017 39.8239 40.5391 40.2113 40.834 39.8659L56.2997 21.7285C56.4342 21.5708 56.4128 21.3333 56.2517 21.2022L46.0952 12.9486C45.8535 12.7524 45.4926 12.9246 45.4926 13.2349Z" fill="#16123F"/>
<path d="M13.4038 16.295V22.6808C13.4038 22.794 13.3523 22.9002 13.264 22.9705L11.5754 24.3077C11.3723 24.4688 11.3937 24.7834 11.6166 24.9154L28.6209 34.9664C28.7923 35.0676 28.8523 35.2879 28.7563 35.4627L27.0437 38.5768C26.9426 38.7611 26.7077 38.8236 26.5277 38.7139L4.17731 25.11C3.97159 24.9848 3.93902 24.6994 4.11045 24.5306L12.7755 16.031C13.0095 15.8021 13.4038 15.9676 13.4038 16.295Z" fill="#16123F"/>
</g>
<defs>
<filter id="filter0_d_1216_4185" x="0" y="0" width="60.3882" height="48" filterUnits="userSpaceOnUse" color-interpolation-filters="sRGB">
<feFlood flood-opacity="0" result="BackgroundImageFix"/>
<feColorMatrix in="SourceAlpha" type="matrix" values="0 0 0 0 0 0 0 0 0 0 0 0 0 0 0 0 0 0 127 0" result="hardAlpha"/>
<feOffset dy="4"/>
<feGaussianBlur stdDeviation="2"/>
<feComposite in2="hardAlpha" operator="out"/>
<feColorMatrix type="matrix" values="0 0 0 0 0 0 0 0 0 0 0 0 0 0 0 0 0 0 0.25 0"/>
<feBlend mode="normal" in2="BackgroundImageFix" result="effect1_dropShadow_1216_4185"/>
<feBlend mode="normal" in="SourceGraphic" in2="effect1_dropShadow_1216_4185" result="shape"/>
</filter>
</defs>
</svg>
